{
 "cells": [
  {
   "cell_type": "markdown",
   "metadata": {},
   "source": [
    "### This is a notebook to convert video to images and change them back."
   ]
  },
  {
   "cell_type": "code",
   "execution_count": 23,
   "metadata": {},
   "outputs": [
    {
     "name": "stdout",
     "output_type": "stream",
     "text": [
      "Original video duration: 579.9 seconds\n",
      "Original video FPS: 30.0\n"
     ]
    },
    {
     "name": "stderr",
     "output_type": "stream",
     "text": [
      "ffmpeg version 7.1 Copyright (c) 2000-2024 the FFmpeg developers\n",
      "  built with Apple clang version 16.0.0 (clang-1600.0.26.3)\n",
      "  configuration: --prefix=/opt/homebrew/Cellar/ffmpeg/7.1 --enable-shared --enable-pthreads --enable-version3 --cc=clang --host-cflags= --host-ldflags='-Wl,-ld_classic' --enable-ffplay --enable-gnutls --enable-gpl --enable-libaom --enable-libaribb24 --enable-libbluray --enable-libdav1d --enable-libharfbuzz --enable-libjxl --enable-libmp3lame --enable-libopus --enable-librav1e --enable-librist --enable-librubberband --enable-libsnappy --enable-libsrt --enable-libssh --enable-libsvtav1 --enable-libtesseract --enable-libtheora --enable-libvidstab --enable-libvmaf --enable-libvorbis --enable-libvpx --enable-libwebp --enable-libx264 --enable-libx265 --enable-libxml2 --enable-libxvid --enable-lzma --enable-libfontconfig --enable-libfreetype --enable-frei0r --enable-libass --enable-libopencore-amrnb --enable-libopencore-amrwb --enable-libopenjpeg --enable-libspeex --enable-libsoxr --enable-libzmq --enable-libzimg --disable-libjack --disable-indev=jack --enable-videotoolbox --enable-audiotoolbox --enable-neon\n",
      "  libavutil      59. 39.100 / 59. 39.100\n",
      "  libavcodec     61. 19.100 / 61. 19.100\n",
      "  libavformat    61.  7.100 / 61.  7.100\n",
      "  libavdevice    61.  3.100 / 61.  3.100\n",
      "  libavfilter    10.  4.100 / 10.  4.100\n",
      "  libswscale      8.  3.100 /  8.  3.100\n",
      "  libswresample   5.  3.100 /  5.  3.100\n",
      "  libpostproc    58.  3.100 / 58.  3.100\n",
      "Input #0, mov,mp4,m4a,3gp,3g2,mj2, from './video/raw_xk/metal-sewerball-video-2.mp4':\n",
      "  Metadata:\n",
      "    major_brand     : isom\n",
      "    minor_version   : 512\n",
      "    compatible_brands: isomiso2avc1mp41\n",
      "    encoder         : https://clipchamp.com\n",
      "    comment         : Create videos with https://clipchamp.com/en/video-editor - free online video editor, video compressor, video converter.\n",
      "  Duration: 00:09:39.90, start: 0.000000, bitrate: 8778 kb/s\n",
      "  Stream #0:0[0x1](und): Video: h264 (Constrained Baseline) (avc1 / 0x31637661), yuv420p(progressive), 1280x720 [SAR 1:1 DAR 16:9], 8777 kb/s, 30 fps, 30 tbr, 15360 tbn (default)\n",
      "      Metadata:\n",
      "        handler_name    : VideoHandler\n",
      "        vendor_id       : [0][0][0][0]\n",
      "Stream mapping:\n",
      "  Stream #0:0 -> #0:0 (h264 (native) -> h264 (libx264))\n",
      "Press [q] to stop, [?] for help\n",
      "[libx264 @ 0x135731d90] using SAR=1/1\n",
      "[libx264 @ 0x135731d90] using cpu capabilities: ARMv8 NEON\n",
      "[libx264 @ 0x135731d90] profile High, level 3.1, 4:2:0, 8-bit\n",
      "[libx264 @ 0x135731d90] 264 - core 164 r3108 31e19f9 - H.264/MPEG-4 AVC codec - Copyleft 2003-2023 - http://www.videolan.org/x264.html - options: cabac=1 ref=5 deblock=1:0:0 analyse=0x3:0x113 me=hex subme=8 psy=1 psy_rd=1.00:0.00 mixed_ref=1 me_range=16 chroma_me=1 trellis=2 8x8dct=1 cqm=0 deadzone=21,11 fast_pskip=1 chroma_qp_offset=-2 threads=15 lookahead_threads=2 sliced_threads=0 nr=0 decimate=1 interlaced=0 bluray_compat=0 constrained_intra=0 bframes=3 b_pyramid=2 b_adapt=1 b_bias=0 direct=3 weightb=1 open_gop=0 weightp=2 keyint=250 keyint_min=25 scenecut=40 intra_refresh=0 rc_lookahead=50 rc=abr mbtree=1 bitrate=800 ratetol=1.0 qcomp=0.60 qpmin=0 qpmax=69 qpstep=4 ip_ratio=1.40 aq=1:1.00\n",
      "Output #0, mp4, to 'clip1_25s_to_33s.mp4':\n",
      "  Metadata:\n",
      "    major_brand     : isom\n",
      "    minor_version   : 512\n",
      "    compatible_brands: isomiso2avc1mp41\n",
      "    comment         : Create videos with https://clipchamp.com/en/video-editor - free online video editor, video compressor, video converter.\n",
      "    encoder         : Lavf61.7.100\n",
      "  Stream #0:0(und): Video: h264 (avc1 / 0x31637661), yuv420p(tv, progressive), 1280x720 [SAR 1:1 DAR 16:9], q=2-31, 800 kb/s, 30 fps, 15360 tbn (default)\n",
      "      Metadata:\n",
      "        handler_name    : VideoHandler\n",
      "        vendor_id       : [0][0][0][0]\n",
      "        encoder         : Lavc61.19.100 libx264\n",
      "      Side data:\n",
      "        cpb: bitrate max/min/avg: 0/0/800000 buffer size: 0 vbv_delay: N/A\n",
      "[out#0/mp4 @ 0x135730a90] video:819KiB audio:0KiB subtitle:0KiB other streams:0KiB global headers:0KiB muxing overhead: 0.463606%\n",
      "frame=  240 fps=157 q=-1.0 Lsize=     823KiB time=00:00:07.93 bitrate= 850.0kbits/s speed= 5.2x    \n",
      "[libx264 @ 0x135731d90] frame I:1     Avg QP:29.16  size: 15781\n",
      "[libx264 @ 0x135731d90] frame P:60    Avg QP:33.05  size:  6158\n",
      "[libx264 @ 0x135731d90] frame B:179   Avg QP:32.52  size:  2531\n",
      "[libx264 @ 0x135731d90] consecutive B-frames:  0.4%  0.0%  1.2% 98.3%\n",
      "[libx264 @ 0x135731d90] mb I  I16..4: 34.9% 63.1%  2.0%\n",
      "[libx264 @ 0x135731d90] mb P  I16..4:  6.1% 12.4%  0.0%  P16..4: 32.2%  2.7%  1.8%  0.0%  0.0%    skip:44.7%\n",
      "[libx264 @ 0x135731d90] mb B  I16..4:  0.8%  2.0%  0.0%  B16..8: 19.3%  2.8%  0.2%  direct: 0.6%  skip:74.3%  L0:46.6% L1:49.7% BI: 3.7%\n",
      "[libx264 @ 0x135731d90] final ratefactor: 31.64\n",
      "[libx264 @ 0x135731d90] 8x8 transform intra:67.7% inter:99.0%\n",
      "[libx264 @ 0x135731d90] direct mvs  spatial:95.5% temporal:4.5%\n",
      "[libx264 @ 0x135731d90] coded y,uvDC,uvAC intra: 27.9% 41.5% 1.6% inter: 4.5% 12.2% 0.0%\n",
      "[libx264 @ 0x135731d90] i16 v,h,dc,p: 26% 22% 12% 41%\n",
      "[libx264 @ 0x135731d90] i8 v,h,dc,ddl,ddr,vr,hd,vl,hu: 11% 10% 12%  7% 13% 12% 14%  9% 11%\n",
      "[libx264 @ 0x135731d90] i4 v,h,dc,ddl,ddr,vr,hd,vl,hu:  8%  5%  3%  9% 13% 16% 16% 12% 18%\n",
      "[libx264 @ 0x135731d90] i8c dc,h,v,p: 64% 19% 11%  6%\n",
      "[libx264 @ 0x135731d90] Weighted P-Frames: Y:6.7% UV:3.3%\n",
      "[libx264 @ 0x135731d90] ref P L0: 46.7% 21.2% 17.8%  7.1%  6.9%  0.4%\n",
      "[libx264 @ 0x135731d90] ref B L0: 62.3% 23.0% 10.8%  3.8%\n",
      "[libx264 @ 0x135731d90] ref B L1: 90.0% 10.0%\n",
      "[libx264 @ 0x135731d90] kb/s:838.37\n",
      "ffmpeg version 7.1 Copyright (c) 2000-2024 the FFmpeg developers\n",
      "  built with Apple clang version 16.0.0 (clang-1600.0.26.3)\n",
      "  configuration: --prefix=/opt/homebrew/Cellar/ffmpeg/7.1 --enable-shared --enable-pthreads --enable-version3 --cc=clang --host-cflags= --host-ldflags='-Wl,-ld_classic' --enable-ffplay --enable-gnutls --enable-gpl --enable-libaom --enable-libaribb24 --enable-libbluray --enable-libdav1d --enable-libharfbuzz --enable-libjxl --enable-libmp3lame --enable-libopus --enable-librav1e --enable-librist --enable-librubberband --enable-libsnappy --enable-libsrt --enable-libssh --enable-libsvtav1 --enable-libtesseract --enable-libtheora --enable-libvidstab --enable-libvmaf --enable-libvorbis --enable-libvpx --enable-libwebp --enable-libx264 --enable-libx265 --enable-libxml2 --enable-libxvid --enable-lzma --enable-libfontconfig --enable-libfreetype --enable-frei0r --enable-libass --enable-libopencore-amrnb --enable-libopencore-amrwb --enable-libopenjpeg --enable-libspeex --enable-libsoxr --enable-libzmq --enable-libzimg --disable-libjack --disable-indev=jack --enable-videotoolbox --enable-audiotoolbox --enable-neon\n",
      "  libavutil      59. 39.100 / 59. 39.100\n",
      "  libavcodec     61. 19.100 / 61. 19.100\n",
      "  libavformat    61.  7.100 / 61.  7.100\n",
      "  libavdevice    61.  3.100 / 61.  3.100\n",
      "  libavfilter    10.  4.100 / 10.  4.100\n",
      "  libswscale      8.  3.100 /  8.  3.100\n",
      "  libswresample   5.  3.100 /  5.  3.100\n",
      "  libpostproc    58.  3.100 / 58.  3.100\n",
      "Input #0, mov,mp4,m4a,3gp,3g2,mj2, from './video/raw_xk/metal-sewerball-video-2.mp4':\n",
      "  Metadata:\n",
      "    major_brand     : isom\n",
      "    minor_version   : 512\n",
      "    compatible_brands: isomiso2avc1mp41\n",
      "    encoder         : https://clipchamp.com\n",
      "    comment         : Create videos with https://clipchamp.com/en/video-editor - free online video editor, video compressor, video converter.\n",
      "  Duration: 00:09:39.90, start: 0.000000, bitrate: 8778 kb/s\n",
      "  Stream #0:0[0x1](und): Video: h264 (Constrained Baseline) (avc1 / 0x31637661), yuv420p(progressive), 1280x720 [SAR 1:1 DAR 16:9], 8777 kb/s, 30 fps, 30 tbr, 15360 tbn (default)\n",
      "      Metadata:\n",
      "        handler_name    : VideoHandler\n",
      "        vendor_id       : [0][0][0][0]\n",
      "Stream mapping:\n",
      "  Stream #0:0 -> #0:0 (h264 (native) -> h264 (libx264))\n",
      "Press [q] to stop, [?] for help\n",
      "[libx264 @ 0x13a724610] using SAR=1/1\n",
      "[libx264 @ 0x13a724610] using cpu capabilities: ARMv8 NEON\n",
      "[libx264 @ 0x13a724610] profile High, level 3.1, 4:2:0, 8-bit\n",
      "[libx264 @ 0x13a724610] 264 - core 164 r3108 31e19f9 - H.264/MPEG-4 AVC codec - Copyleft 2003-2023 - http://www.videolan.org/x264.html - options: cabac=1 ref=5 deblock=1:0:0 analyse=0x3:0x113 me=hex subme=8 psy=1 psy_rd=1.00:0.00 mixed_ref=1 me_range=16 chroma_me=1 trellis=2 8x8dct=1 cqm=0 deadzone=21,11 fast_pskip=1 chroma_qp_offset=-2 threads=15 lookahead_threads=2 sliced_threads=0 nr=0 decimate=1 interlaced=0 bluray_compat=0 constrained_intra=0 bframes=3 b_pyramid=2 b_adapt=1 b_bias=0 direct=3 weightb=1 open_gop=0 weightp=2 keyint=250 keyint_min=25 scenecut=40 intra_refresh=0 rc_lookahead=50 rc=abr mbtree=1 bitrate=800 ratetol=1.0 qcomp=0.60 qpmin=0 qpmax=69 qpstep=4 ip_ratio=1.40 aq=1:1.00\n",
      "Output #0, mp4, to 'clip2_4min45s_to_4min53s.mp4':\n",
      "  Metadata:\n",
      "    major_brand     : isom\n",
      "    minor_version   : 512\n",
      "    compatible_brands: isomiso2avc1mp41\n",
      "    comment         : Create videos with https://clipchamp.com/en/video-editor - free online video editor, video compressor, video converter.\n",
      "    encoder         : Lavf61.7.100\n",
      "  Stream #0:0(und): Video: h264 (avc1 / 0x31637661), yuv420p(tv, progressive), 1280x720 [SAR 1:1 DAR 16:9], q=2-31, 800 kb/s, 30 fps, 15360 tbn (default)\n",
      "      Metadata:\n",
      "        handler_name    : VideoHandler\n",
      "        vendor_id       : [0][0][0][0]\n",
      "        encoder         : Lavc61.19.100 libx264\n",
      "      Side data:\n",
      "        cpb: bitrate max/min/avg: 0/0/800000 buffer size: 0 vbv_delay: N/A\n",
      "[out#0/mp4 @ 0x13a723430] video:716KiB audio:0KiB subtitle:0KiB other streams:0KiB global headers:0KiB muxing overhead: 0.530443%\n",
      "frame=  240 fps= 51 q=-1.0 Lsize=     720KiB time=00:00:07.93 bitrate= 743.4kbits/s speed=1.68x    \n",
      "[libx264 @ 0x13a724610] frame I:1     Avg QP:30.74  size: 11638\n",
      "[libx264 @ 0x13a724610] frame P:60    Avg QP:38.04  size:  4393\n",
      "[libx264 @ 0x13a724610] frame B:179   Avg QP:40.20  size:  2555\n",
      "[libx264 @ 0x13a724610] consecutive B-frames:  0.4%  0.0%  1.2% 98.3%\n",
      "[libx264 @ 0x13a724610] mb I  I16..4: 31.9% 67.1%  1.0%\n",
      "[libx264 @ 0x13a724610] mb P  I16..4: 14.4%  8.5%  0.0%  P16..4: 28.3%  0.9%  0.7%  0.0%  0.0%    skip:47.1%\n",
      "[libx264 @ 0x13a724610] mb B  I16..4:  2.8%  2.0%  0.0%  B16..8: 23.7%  1.4%  0.1%  direct: 1.5%  skip:68.6%  L0:55.2% L1:42.4% BI: 2.4%\n",
      "[libx264 @ 0x13a724610] final ratefactor: 35.02\n",
      "[libx264 @ 0x13a724610] 8x8 transform intra:40.1% inter:99.8%\n",
      "[libx264 @ 0x13a724610] direct mvs  spatial:95.5% temporal:4.5%\n",
      "[libx264 @ 0x13a724610] coded y,uvDC,uvAC intra: 8.7% 33.1% 0.3% inter: 2.2% 13.7% 0.0%\n",
      "[libx264 @ 0x13a724610] i16 v,h,dc,p: 24% 29% 13% 34%\n",
      "[libx264 @ 0x13a724610] i8 v,h,dc,ddl,ddr,vr,hd,vl,hu:  9%  9% 29%  8% 12%  9% 11%  8%  7%\n",
      "[libx264 @ 0x13a724610] i4 v,h,dc,ddl,ddr,vr,hd,vl,hu: 10%  4% 11%  9% 15% 16% 12% 11% 13%\n",
      "[libx264 @ 0x13a724610] i8c dc,h,v,p: 79% 11%  7%  2%\n",
      "[libx264 @ 0x13a724610] Weighted P-Frames: Y:3.3% UV:3.3%\n",
      "[libx264 @ 0x13a724610] ref P L0: 39.0% 12.6% 23.6% 12.1% 12.4%  0.4%\n",
      "[libx264 @ 0x13a724610] ref B L0: 50.3% 28.5% 15.7%  5.4%\n",
      "[libx264 @ 0x13a724610] ref B L1: 83.2% 16.8%\n",
      "[libx264 @ 0x13a724610] kb/s:732.64\n"
     ]
    },
    {
     "data": {
      "text/plain": [
       "CompletedProcess(args=['ffmpeg', '-i', './video/raw_xk/metal-sewerball-video-2.mp4', '-ss', '285', '-to', '293', '-c:v', 'libx264', '-preset', 'slow', '-b:v', '800k', '-an', 'clip2_4min45s_to_4min53s.mp4'], returncode=0)"
      ]
     },
     "execution_count": 23,
     "metadata": {},
     "output_type": "execute_result"
    }
   ],
   "source": [
    "#  Change the video to images\n",
    "import ffmpeg\n",
    "import subprocess\n",
    "\n",
    "# Paths to your input video and output clips\n",
    "input_video_path = './video/raw_xk/metal-sewerball-video-2.mp4'\n",
    "output_clip1_path = 'clip1_25s_to_33s.mp4'\n",
    "output_clip2_path = 'clip2_4min45s_to_4min53s.mp4'\n",
    "\n",
    "# Define the start and end times for each clip in seconds\n",
    "start_time_clip1 = 25\n",
    "end_time_clip1 = 33\n",
    "\n",
    "start_time_clip2 = 4 * 60 + 45  # 4 minutes 45 seconds\n",
    "end_time_clip2 = 4 * 60 + 53  # 4 minutes 53 seconds\n",
    "\n",
    "subprocess.run([\n",
    "    'ffmpeg',\n",
    "    '-i', input_video_path,\n",
    "    '-ss', str(start_time_clip1),  # Start time\n",
    "    '-to', str(end_time_clip1),  # End time\n",
    "    '-c:v', 'libx264',  # Video codec\n",
    "    '-preset', 'slow',  # Adjust the preset for better compression\n",
    "    '-b:v', '800k',  # Set the bitrate\n",
    "    '-an',  # No audio\n",
    "    output_clip1_path\n",
    "])\n",
    "\n",
    "# You can save the clip using a more direct ffmpeg call for more flexibility\n",
    "subprocess.run([\n",
    "    'ffmpeg',\n",
    "    '-i', input_video_path,\n",
    "    '-ss', str(start_time_clip2),  # Start time\n",
    "    '-to', str(end_time_clip2),  # End time\n",
    "    '-c:v', 'libx264',  # Video codec\n",
    "    '-preset', 'slow',  # Adjust the preset for better compression\n",
    "    '-b:v', '800k',  # Set the bitrate\n",
    "    '-an',  # No audio\n",
    "    output_clip2_path\n",
    "])\n"
   ]
  },
  {
   "cell_type": "code",
   "execution_count": 24,
   "metadata": {},
   "outputs": [
    {
     "name": "stdout",
     "output_type": "stream",
     "text": [
      "Clip1 FPS: 30.0\n",
      "Clip2 FPS: 30.0\n"
     ]
    }
   ],
   "source": [
    "# output the fps of the video\n",
    "print(f\"Clip1 FPS: {VideoFileClip(output_clip1_path).fps}\")\n",
    "print(f\"Clip2 FPS: {VideoFileClip(output_clip2_path).fps}\")"
   ]
  },
  {
   "cell_type": "markdown",
   "metadata": {},
   "source": [
    "# video2images"
   ]
  },
  {
   "cell_type": "code",
   "execution_count": 30,
   "metadata": {},
   "outputs": [
    {
     "name": "stderr",
     "output_type": "stream",
     "text": [
      "ffmpeg version 7.1 Copyright (c) 2000-2024 the FFmpeg developers\n",
      "  built with Apple clang version 16.0.0 (clang-1600.0.26.3)\n",
      "  configuration: --prefix=/opt/homebrew/Cellar/ffmpeg/7.1 --enable-shared --enable-pthreads --enable-version3 --cc=clang --host-cflags= --host-ldflags='-Wl,-ld_classic' --enable-ffplay --enable-gnutls --enable-gpl --enable-libaom --enable-libaribb24 --enable-libbluray --enable-libdav1d --enable-libharfbuzz --enable-libjxl --enable-libmp3lame --enable-libopus --enable-librav1e --enable-librist --enable-librubberband --enable-libsnappy --enable-libsrt --enable-libssh --enable-libsvtav1 --enable-libtesseract --enable-libtheora --enable-libvidstab --enable-libvmaf --enable-libvorbis --enable-libvpx --enable-libwebp --enable-libx264 --enable-libx265 --enable-libxml2 --enable-libxvid --enable-lzma --enable-libfontconfig --enable-libfreetype --enable-frei0r --enable-libass --enable-libopencore-amrnb --enable-libopencore-amrwb --enable-libopenjpeg --enable-libspeex --enable-libsoxr --enable-libzmq --enable-libzimg --disable-libjack --disable-indev=jack --enable-videotoolbox --enable-audiotoolbox --enable-neon\n",
      "  libavutil      59. 39.100 / 59. 39.100\n",
      "  libavcodec     61. 19.100 / 61. 19.100\n",
      "  libavformat    61.  7.100 / 61.  7.100\n",
      "  libavdevice    61.  3.100 / 61.  3.100\n",
      "  libavfilter    10.  4.100 / 10.  4.100\n",
      "  libswscale      8.  3.100 /  8.  3.100\n",
      "  libswresample   5.  3.100 /  5.  3.100\n",
      "  libpostproc    58.  3.100 / 58.  3.100\n",
      "Input #0, mov,mp4,m4a,3gp,3g2,mj2, from './video/metal/clip2_4min45s_to_4min53s.mp4':\n",
      "  Metadata:\n",
      "    major_brand     : isom\n",
      "    minor_version   : 512\n",
      "    compatible_brands: isomiso2avc1mp41\n",
      "    encoder         : Lavf61.7.100\n",
      "    comment         : Create videos with https://clipchamp.com/en/video-editor - free online video editor, video compressor, video converter.\n",
      "  Duration: 00:00:08.00, start: 0.000000, bitrate: 737 kb/s\n",
      "  Stream #0:0[0x1](und): Video: h264 (High) (avc1 / 0x31637661), yuv420p(progressive), 1280x720 [SAR 1:1 DAR 16:9], 733 kb/s, 30 fps, 30 tbr, 15360 tbn (default)\n",
      "      Metadata:\n",
      "        handler_name    : VideoHandler\n",
      "        vendor_id       : [0][0][0][0]\n",
      "        encoder         : Lavc61.19.100 libx264\n",
      "Stream mapping:\n",
      "  Stream #0:0 -> #0:0 (h264 (native) -> png (native))\n",
      "Press [q] to stop, [?] for help\n",
      "[swscaler @ 0x1303c0000] [swscaler @ 0x151468000] No accelerated colorspace conversion found from yuv420p to rgb24.\n",
      "[swscaler @ 0x1303c0000] [swscaler @ 0x151478000] No accelerated colorspace conversion found from yuv420p to rgb24.\n",
      "[swscaler @ 0x1303c0000] [swscaler @ 0x151488000] No accelerated colorspace conversion found from yuv420p to rgb24.\n",
      "[swscaler @ 0x1303c0000] [swscaler @ 0x151498000] No accelerated colorspace conversion found from yuv420p to rgb24.\n",
      "[swscaler @ 0x1303c0000] [swscaler @ 0x1514a8000] No accelerated colorspace conversion found from yuv420p to rgb24.\n",
      "[swscaler @ 0x1303c0000] [swscaler @ 0x1514b8000] No accelerated colorspace conversion found from yuv420p to rgb24.\n",
      "[swscaler @ 0x1303c0000] [swscaler @ 0x1514c8000] No accelerated colorspace conversion found from yuv420p to rgb24.\n",
      "[swscaler @ 0x1303c0000] [swscaler @ 0x1514d8000] No accelerated colorspace conversion found from yuv420p to rgb24.\n",
      "[swscaler @ 0x1303c0000] [swscaler @ 0x3002b8000] No accelerated colorspace conversion found from yuv420p to rgb24.\n",
      "[swscaler @ 0x1303c0000] [swscaler @ 0x3002c8000] No accelerated colorspace conversion found from yuv420p to rgb24.\n",
      "[swscaler @ 0x1303c0000] [swscaler @ 0x3002d8000] No accelerated colorspace conversion found from yuv420p to rgb24.\n",
      "Output #0, image2, to 'output_images/%d.png':\n",
      "  Metadata:\n",
      "    major_brand     : isom\n",
      "    minor_version   : 512\n",
      "    compatible_brands: isomiso2avc1mp41\n",
      "    comment         : Create videos with https://clipchamp.com/en/video-editor - free online video editor, video compressor, video converter.\n",
      "    encoder         : Lavf61.7.100\n",
      "  Stream #0:0(und): Video: png, rgb24(pc, gbr/unknown/unknown, progressive), 1280x720 [SAR 1:1 DAR 16:9], q=2-31, 200 kb/s, 30 fps, 30 tbn (default)\n",
      "      Metadata:\n",
      "        handler_name    : VideoHandler\n",
      "        vendor_id       : [0][0][0][0]\n",
      "        encoder         : Lavc61.19.100 png\n",
      "frame=  155 fps=154 q=-0.0 size=N/A time=00:00:05.16 bitrate=N/A speed=5.15x    \r"
     ]
    },
    {
     "name": "stdout",
     "output_type": "stream",
     "text": [
      "Extracted frames from video.\n"
     ]
    },
    {
     "name": "stderr",
     "output_type": "stream",
     "text": [
      "[out#0/image2 @ 0x13ae040e0] video:244280KiB audio:0KiB subtitle:0KiB other streams:0KiB global headers:0KiB muxing overhead: unknown\n",
      "frame=  240 fps=158 q=-0.0 Lsize=N/A time=00:00:08.00 bitrate=N/A speed=5.28x    \n"
     ]
    }
   ],
   "source": [
    "# video to images\n",
    "input_video = './video/metal/clip2_4min45s_to_4min53s.mp4'\n",
    "output_images_pattern = 'output_images/%d.png'\n",
    "\n",
    "# Extract frames from video (30 fps)\n",
    "ffmpeg.input(input_video).output(output_images_pattern, vf='fps=30').run()   # 30 fps\n",
    "print('Extracted frames from video.')"
   ]
  },
  {
   "cell_type": "code",
   "execution_count": 1,
   "metadata": {},
   "outputs": [
    {
     "name": "stdout",
     "output_type": "stream",
     "text": [
      "/Users/lixin/00 UBCO/00_Github_lixin/codes_github/Video_Waterdrop_Removal/Video analysis\n"
     ]
    }
   ],
   "source": [
    "# show the current directory\n",
    "import os\n",
    "print(os.getcwd())"
   ]
  },
  {
   "cell_type": "code",
   "execution_count": 4,
   "metadata": {},
   "outputs": [
    {
     "data": {
      "text/plain": [
       "<_io.TextIOWrapper name='../vid_test_real/1/238.png' mode='r' encoding='UTF-8'>"
      ]
     },
     "execution_count": 4,
     "metadata": {},
     "output_type": "execute_result"
    }
   ],
   "source": [
    "input_images_pattern = '../vid_test_real/1/238.png'  # after\n",
    "open(input_images_pattern)"
   ]
  },
  {
   "cell_type": "markdown",
   "metadata": {},
   "source": [
    "# image2video"
   ]
  },
  {
   "cell_type": "code",
   "execution_count": 5,
   "metadata": {},
   "outputs": [
    {
     "name": "stderr",
     "output_type": "stream",
     "text": [
      "ffmpeg version 7.1 Copyright (c) 2000-2024 the FFmpeg developers\n",
      "  built with Apple clang version 16.0.0 (clang-1600.0.26.3)\n",
      "  configuration: --prefix=/opt/homebrew/Cellar/ffmpeg/7.1 --enable-shared --enable-pthreads --enable-version3 --cc=clang --host-cflags= --host-ldflags='-Wl,-ld_classic' --enable-ffplay --enable-gnutls --enable-gpl --enable-libaom --enable-libaribb24 --enable-libbluray --enable-libdav1d --enable-libharfbuzz --enable-libjxl --enable-libmp3lame --enable-libopus --enable-librav1e --enable-librist --enable-librubberband --enable-libsnappy --enable-libsrt --enable-libssh --enable-libsvtav1 --enable-libtesseract --enable-libtheora --enable-libvidstab --enable-libvmaf --enable-libvorbis --enable-libvpx --enable-libwebp --enable-libx264 --enable-libx265 --enable-libxml2 --enable-libxvid --enable-lzma --enable-libfontconfig --enable-libfreetype --enable-frei0r --enable-libass --enable-libopencore-amrnb --enable-libopencore-amrwb --enable-libopenjpeg --enable-libspeex --enable-libsoxr --enable-libzmq --enable-libzimg --disable-libjack --disable-indev=jack --enable-videotoolbox --enable-audiotoolbox --enable-neon\n",
      "  libavutil      59. 39.100 / 59. 39.100\n",
      "  libavcodec     61. 19.100 / 61. 19.100\n",
      "  libavformat    61.  7.100 / 61.  7.100\n",
      "  libavdevice    61.  3.100 / 61.  3.100\n",
      "  libavfilter    10.  4.100 / 10.  4.100\n",
      "  libswscale      8.  3.100 /  8.  3.100\n",
      "  libswresample   5.  3.100 /  5.  3.100\n",
      "  libpostproc    58.  3.100 / 58.  3.100\n",
      "[image2 @ 0x13e0045a0] Could find no file with path '../vid_test_real/1/%d.png' and index in the range 0-4\n",
      "[in#0 @ 0x13e004340] Error opening input: No such file or directory\n",
      "Error opening input file ../vid_test_real/1/%d.png.\n",
      "Error opening input files: No such file or directory\n"
     ]
    },
    {
     "ename": "Error",
     "evalue": "ffmpeg error (see stderr output for detail)",
     "output_type": "error",
     "traceback": [
      "\u001b[0;31m---------------------------------------------------------------------------\u001b[0m",
      "\u001b[0;31mError\u001b[0m                                     Traceback (most recent call last)",
      "Cell \u001b[0;32mIn[5], line 11\u001b[0m\n\u001b[1;32m      8\u001b[0m output_video \u001b[38;5;241m=\u001b[39m \u001b[38;5;124m'\u001b[39m\u001b[38;5;124m./video/1_resore_after.mp4\u001b[39m\u001b[38;5;124m'\u001b[39m\n\u001b[1;32m     10\u001b[0m \u001b[38;5;66;03m# Convert images back to video\u001b[39;00m\n\u001b[0;32m---> 11\u001b[0m \u001b[43mffmpeg\u001b[49m\u001b[38;5;241;43m.\u001b[39;49m\u001b[43minput\u001b[49m\u001b[43m(\u001b[49m\u001b[43minput_images_pattern\u001b[49m\u001b[43m,\u001b[49m\u001b[43m \u001b[49m\u001b[43mframerate\u001b[49m\u001b[38;5;241;43m=\u001b[39;49m\u001b[38;5;241;43m30\u001b[39;49m\u001b[43m)\u001b[49m\u001b[38;5;241;43m.\u001b[39;49m\u001b[43moutput\u001b[49m\u001b[43m(\u001b[49m\u001b[43moutput_video\u001b[49m\u001b[43m,\u001b[49m\u001b[43m \u001b[49m\u001b[43mvcodec\u001b[49m\u001b[38;5;241;43m=\u001b[39;49m\u001b[38;5;124;43m'\u001b[39;49m\u001b[38;5;124;43mlibx264\u001b[39;49m\u001b[38;5;124;43m'\u001b[39;49m\u001b[43m,\u001b[49m\u001b[43m \u001b[49m\u001b[43mpix_fmt\u001b[49m\u001b[38;5;241;43m=\u001b[39;49m\u001b[38;5;124;43m'\u001b[39;49m\u001b[38;5;124;43myuv420p\u001b[39;49m\u001b[38;5;124;43m'\u001b[39;49m\u001b[43m)\u001b[49m\u001b[38;5;241;43m.\u001b[39;49m\u001b[43mrun\u001b[49m\u001b[43m(\u001b[49m\u001b[43m)\u001b[49m\n\u001b[1;32m     12\u001b[0m \u001b[38;5;28mprint\u001b[39m(\u001b[38;5;124m'\u001b[39m\u001b[38;5;124mVideo created:\u001b[39m\u001b[38;5;124m'\u001b[39m, output_video)\n",
      "File \u001b[0;32m~/anaconda3/lib/python3.11/site-packages/ffmpeg/_run.py:325\u001b[0m, in \u001b[0;36mrun\u001b[0;34m(stream_spec, cmd, capture_stdout, capture_stderr, input, quiet, overwrite_output)\u001b[0m\n\u001b[1;32m    323\u001b[0m retcode \u001b[38;5;241m=\u001b[39m process\u001b[38;5;241m.\u001b[39mpoll()\n\u001b[1;32m    324\u001b[0m \u001b[38;5;28;01mif\u001b[39;00m retcode:\n\u001b[0;32m--> 325\u001b[0m     \u001b[38;5;28;01mraise\u001b[39;00m Error(\u001b[38;5;124m'\u001b[39m\u001b[38;5;124mffmpeg\u001b[39m\u001b[38;5;124m'\u001b[39m, out, err)\n\u001b[1;32m    326\u001b[0m \u001b[38;5;28;01mreturn\u001b[39;00m out, err\n",
      "\u001b[0;31mError\u001b[0m: ffmpeg error (see stderr output for detail)"
     ]
    }
   ],
   "source": [
    "# Convert images back to video\n",
    "import ffmpeg\n",
    "\n",
    "input_images_pattern = '../dataset/test/real/0/%d.png'  # before\n",
    "output_video = './video/1_resore.mp4'\n",
    "\n",
    "# Convert images back to video\n",
    "ffmpeg.input(input_images_pattern, framerate=30).output(output_video, vcodec='libx264', pix_fmt='yuv420p').run()\n",
    "print('Video created:', output_video)"
   ]
  },
  {
   "cell_type": "code",
   "execution_count": 6,
   "metadata": {},
   "outputs": [
    {
     "name": "stderr",
     "output_type": "stream",
     "text": [
      "ffmpeg version 7.1 Copyright (c) 2000-2024 the FFmpeg developers\n",
      "  built with Apple clang version 16.0.0 (clang-1600.0.26.3)\n",
      "  configuration: --prefix=/opt/homebrew/Cellar/ffmpeg/7.1 --enable-shared --enable-pthreads --enable-version3 --cc=clang --host-cflags= --host-ldflags='-Wl,-ld_classic' --enable-ffplay --enable-gnutls --enable-gpl --enable-libaom --enable-libaribb24 --enable-libbluray --enable-libdav1d --enable-libharfbuzz --enable-libjxl --enable-libmp3lame --enable-libopus --enable-librav1e --enable-librist --enable-librubberband --enable-libsnappy --enable-libsrt --enable-libssh --enable-libsvtav1 --enable-libtesseract --enable-libtheora --enable-libvidstab --enable-libvmaf --enable-libvorbis --enable-libvpx --enable-libwebp --enable-libx264 --enable-libx265 --enable-libxml2 --enable-libxvid --enable-lzma --enable-libfontconfig --enable-libfreetype --enable-frei0r --enable-libass --enable-libopencore-amrnb --enable-libopencore-amrwb --enable-libopenjpeg --enable-libspeex --enable-libsoxr --enable-libzmq --enable-libzimg --disable-libjack --disable-indev=jack --enable-videotoolbox --enable-audiotoolbox --enable-neon\n",
      "  libavutil      59. 39.100 / 59. 39.100\n",
      "  libavcodec     61. 19.100 / 61. 19.100\n",
      "  libavformat    61.  7.100 / 61.  7.100\n",
      "  libavdevice    61.  3.100 / 61.  3.100\n",
      "  libavfilter    10.  4.100 / 10.  4.100\n",
      "  libswscale      8.  3.100 /  8.  3.100\n",
      "  libswresample   5.  3.100 /  5.  3.100\n",
      "  libpostproc    58.  3.100 / 58.  3.100\n",
      "Input #0, image2, from '../vid_test_real/1/%d.png':\n",
      "  Duration: 00:00:07.93, start: 0.000000, bitrate: N/A\n",
      "  Stream #0:0: Video: png, rgb24(pc, gbr/unknown/unknown), 1280x704, 30 fps, 30 tbr, 30 tbn\n",
      "Stream mapping:\n",
      "  Stream #0:0 -> #0:0 (png (native) -> h264 (libx264))\n",
      "Press [q] to stop, [?] for help\n",
      "[libx264 @ 0x1530061c0] using cpu capabilities: ARMv8 NEON\n",
      "[libx264 @ 0x1530061c0] profile High, level 3.1, 4:2:0, 8-bit\n",
      "[libx264 @ 0x1530061c0] 264 - core 164 r3108 31e19f9 - H.264/MPEG-4 AVC codec - Copyleft 2003-2023 - http://www.videolan.org/x264.html - options: cabac=1 ref=3 deblock=1:0:0 analyse=0x3:0x113 me=hex subme=7 psy=1 psy_rd=1.00:0.00 mixed_ref=1 me_range=16 chroma_me=1 trellis=1 8x8dct=1 cqm=0 deadzone=21,11 fast_pskip=1 chroma_qp_offset=-2 threads=15 lookahead_threads=2 sliced_threads=0 nr=0 decimate=1 interlaced=0 bluray_compat=0 constrained_intra=0 bframes=3 b_pyramid=2 b_adapt=1 b_bias=0 direct=1 weightb=1 open_gop=0 weightp=2 keyint=250 keyint_min=25 scenecut=40 intra_refresh=0 rc_lookahead=40 rc=crf mbtree=1 crf=23.0 qcomp=0.60 qpmin=0 qpmax=69 qpstep=4 ip_ratio=1.40 aq=1:1.00\n",
      "Output #0, mp4, to './video/1_resore_after.mp4':\n",
      "  Metadata:\n",
      "    encoder         : Lavf61.7.100\n",
      "  Stream #0:0: Video: h264 (avc1 / 0x31637661), yuv420p(tv, progressive), 1280x704, q=2-31, 30 fps, 15360 tbn\n",
      "      Metadata:\n",
      "        encoder         : Lavc61.19.100 libx264\n",
      "      Side data:\n",
      "        cpb: bitrate max/min/avg: 0/0/0 buffer size: 0 vbv_delay: N/A\n",
      "frame=  156 fps=103 q=29.0 size=    2560KiB time=00:00:05.13 bitrate=4085.4kbits/s speed=3.38x    \r"
     ]
    },
    {
     "name": "stdout",
     "output_type": "stream",
     "text": [
      "Video created: ./video/1_resore_after.mp4\n"
     ]
    },
    {
     "name": "stderr",
     "output_type": "stream",
     "text": [
      "[out#0/mp4 @ 0x15271e3e0] video:4114KiB audio:0KiB subtitle:0KiB other streams:0KiB global headers:0KiB muxing overhead: 0.089234%\n",
      "frame=  238 fps=120 q=-1.0 Lsize=    4117KiB time=00:00:07.86 bitrate=4287.8kbits/s speed=3.95x    \n",
      "[libx264 @ 0x1530061c0] frame I:1     Avg QP:24.50  size: 48612\n",
      "[libx264 @ 0x1530061c0] frame P:62    Avg QP:25.38  size: 35705\n",
      "[libx264 @ 0x1530061c0] frame B:175   Avg QP:27.49  size: 11140\n",
      "[libx264 @ 0x1530061c0] consecutive B-frames:  1.3%  1.7%  1.3% 95.8%\n",
      "[libx264 @ 0x1530061c0] mb I  I16..4: 17.8% 53.6% 28.6%\n",
      "[libx264 @ 0x1530061c0] mb P  I16..4:  7.9% 16.9%  5.1%  P16..4: 36.9% 18.5%  7.8%  0.0%  0.0%    skip: 6.9%\n",
      "[libx264 @ 0x1530061c0] mb B  I16..4:  1.3%  1.8%  0.4%  B16..8: 42.1% 10.9%  1.9%  direct: 3.7%  skip:37.9%  L0:45.6% L1:44.7% BI: 9.8%\n",
      "[libx264 @ 0x1530061c0] 8x8 transform intra:54.9% inter:68.0%\n",
      "[libx264 @ 0x1530061c0] coded y,uvDC,uvAC intra: 48.8% 44.3% 3.0% inter: 24.9% 15.2% 0.2%\n",
      "[libx264 @ 0x1530061c0] i16 v,h,dc,p: 24% 21%  7% 48%\n",
      "[libx264 @ 0x1530061c0] i8 v,h,dc,ddl,ddr,vr,hd,vl,hu: 27% 19% 19%  5%  4%  5%  6%  6%  8%\n",
      "[libx264 @ 0x1530061c0] i4 v,h,dc,ddl,ddr,vr,hd,vl,hu: 36% 21% 16%  4%  4%  4%  5%  4%  6%\n",
      "[libx264 @ 0x1530061c0] i8c dc,h,v,p: 66% 15% 17%  3%\n",
      "[libx264 @ 0x1530061c0] Weighted P-Frames: Y:6.5% UV:1.6%\n",
      "[libx264 @ 0x1530061c0] ref P L0: 51.4% 19.2% 21.1%  8.1%  0.2%\n",
      "[libx264 @ 0x1530061c0] ref B L0: 90.3%  7.7%  2.0%\n",
      "[libx264 @ 0x1530061c0] ref B L1: 97.0%  3.0%\n",
      "[libx264 @ 0x1530061c0] kb/s:4247.24\n"
     ]
    }
   ],
   "source": [
    "# Convert images back to video\n",
    "input_images_pattern = '../vid_test_real/1/%d.png'  # after\n",
    "start_number = 238  # Starting image number\n",
    "output_video = './video/1_resore_after.mp4'  # Output video path\n",
    "\n",
    "# Convert images back to video\n",
    "ffmpeg.input(input_images_pattern, framerate=30, start_number=start_number)\\\n",
    "      .output(output_video, vcodec='libx264', pix_fmt='yuv420p')\\\n",
    "      .run()\n",
    "\n",
    "print('Video created:', output_video)"
   ]
  },
  {
   "cell_type": "markdown",
   "metadata": {},
   "source": [
    "# Resize the input images have the same tensor size with the sample images"
   ]
  },
  {
   "cell_type": "code",
   "execution_count": 2,
   "metadata": {},
   "outputs": [
    {
     "name": "stdout",
     "output_type": "stream",
     "text": [
      "Sample image width: 1280\n",
      "Sample image height: 704\n",
      "Resized input image width: 1280\n",
      "Resized input image height: 704\n"
     ]
    }
   ],
   "source": [
    "# import cv2\n",
    "# # The below code is to ensure the input images have the same tensor size with the sample images\n",
    "# # Load the sample image\n",
    "# sample_image_path = \"./sample_image/1.png\"\n",
    "# sample_image = cv2.imread(sample_image_path)\n",
    "\n",
    "# # Get the width and height of the sample image\n",
    "# sample_image_width = sample_image.shape[1]\n",
    "# sample_image_height = sample_image.shape[0]\n",
    "\n",
    "# # Print the width and height of the sample image\n",
    "# print(f\"Sample image width: {sample_image_width}\")\n",
    "# print(f\"Sample image height: {sample_image_height}\")"
   ]
  },
  {
   "cell_type": "code",
   "execution_count": 31,
   "metadata": {},
   "outputs": [
    {
     "name": "stdout",
     "output_type": "stream",
     "text": [
      "Processed 176.png:\n",
      "Resized image width: 1280\n",
      "Resized image height: 704\n",
      "Processed 88.png:\n",
      "Resized image width: 1280\n",
      "Resized image height: 704\n",
      "Processed 162.png:\n",
      "Resized image width: 1280\n",
      "Resized image height: 704\n",
      "Processed 189.png:\n",
      "Resized image width: 1280\n",
      "Resized image height: 704\n",
      "Processed 77.png:\n",
      "Resized image width: 1280\n",
      "Resized image height: 704\n",
      "Processed 63.png:\n",
      "Resized image width: 1280\n",
      "Resized image height: 704\n",
      "Processed 228.png:\n",
      "Resized image width: 1280\n",
      "Resized image height: 704\n",
      "Processed 200.png:\n",
      "Resized image width: 1280\n",
      "Resized image height: 704\n",
      "Processed 214.png:\n",
      "Resized image width: 1280\n",
      "Resized image height: 704\n",
      "Processed 215.png:\n",
      "Resized image width: 1280\n",
      "Resized image height: 704\n",
      "Processed 201.png:\n",
      "Resized image width: 1280\n",
      "Resized image height: 704\n",
      "Processed 229.png:\n",
      "Resized image width: 1280\n",
      "Resized image height: 704\n",
      "Processed 62.png:\n",
      "Resized image width: 1280\n",
      "Resized image height: 704\n",
      "Processed 188.png:\n",
      "Resized image width: 1280\n",
      "Resized image height: 704\n",
      "Processed 76.png:\n",
      "Resized image width: 1280\n",
      "Resized image height: 704\n",
      "Processed 163.png:\n",
      "Resized image width: 1280\n",
      "Resized image height: 704\n",
      "Processed 177.png:\n",
      "Resized image width: 1280\n",
      "Resized image height: 704\n",
      "Processed 89.png:\n",
      "Resized image width: 1280\n",
      "Resized image height: 704\n",
      "Processed 149.png:\n",
      "Resized image width: 1280\n",
      "Resized image height: 704\n",
      "Processed 161.png:\n",
      "Resized image width: 1280\n",
      "Resized image height: 704\n",
      "Processed 175.png:\n",
      "Resized image width: 1280\n",
      "Resized image height: 704\n",
      "Processed 60.png:\n",
      "Resized image width: 1280\n",
      "Resized image height: 704\n",
      "Processed 74.png:\n",
      "Resized image width: 1280\n",
      "Resized image height: 704\n",
      "Processed 48.png:\n",
      "Resized image width: 1280\n",
      "Resized image height: 704\n",
      "Processed 217.png:\n",
      "Resized image width: 1280\n",
      "Resized image height: 704\n",
      "Processed 203.png:\n",
      "Resized image width: 1280\n",
      "Resized image height: 704\n",
      "Processed 202.png:\n",
      "Resized image width: 1280\n",
      "Resized image height: 704\n",
      "Processed 216.png:\n",
      "Resized image width: 1280\n",
      "Resized image height: 704\n",
      "Processed 49.png:\n",
      "Resized image width: 1280\n",
      "Resized image height: 704\n",
      "Processed 75.png:\n",
      "Resized image width: 1280\n",
      "Resized image height: 704\n",
      "Processed 61.png:\n",
      "Resized image width: 1280\n",
      "Resized image height: 704\n",
      "Processed 174.png:\n",
      "Resized image width: 1280\n",
      "Resized image height: 704\n",
      "Processed 160.png:\n",
      "Resized image width: 1280\n",
      "Resized image height: 704\n",
      "Processed 148.png:\n",
      "Resized image width: 1280\n",
      "Resized image height: 704\n",
      "Processed 164.png:\n",
      "Resized image width: 1280\n",
      "Resized image height: 704\n",
      "Processed 170.png:\n",
      "Resized image width: 1280\n",
      "Resized image height: 704\n",
      "Processed 158.png:\n",
      "Resized image width: 1280\n",
      "Resized image height: 704\n",
      "Processed 59.png:\n",
      "Resized image width: 1280\n",
      "Resized image height: 704\n",
      "Processed 65.png:\n",
      "Resized image width: 1280\n",
      "Resized image height: 704\n",
      "Processed 71.png:\n",
      "Resized image width: 1280\n",
      "Resized image height: 704\n",
      "Processed 212.png:\n",
      "Resized image width: 1280\n",
      "Resized image height: 704\n",
      "Processed 206.png:\n",
      "Resized image width: 1280\n",
      "Resized image height: 704\n",
      "Processed 207.png:\n",
      "Resized image width: 1280\n",
      "Resized image height: 704\n",
      "Processed 213.png:\n",
      "Resized image width: 1280\n",
      "Resized image height: 704\n",
      "Processed 70.png:\n",
      "Resized image width: 1280\n",
      "Resized image height: 704\n",
      "Processed 64.png:\n",
      "Resized image width: 1280\n",
      "Resized image height: 704\n",
      "Processed 58.png:\n",
      "Resized image width: 1280\n",
      "Resized image height: 704\n",
      "Processed 159.png:\n",
      "Resized image width: 1280\n",
      "Resized image height: 704\n",
      "Processed 171.png:\n",
      "Resized image width: 1280\n",
      "Resized image height: 704\n",
      "Processed 165.png:\n",
      "Resized image width: 1280\n",
      "Resized image height: 704\n",
      "Processed 173.png:\n",
      "Resized image width: 1280\n",
      "Resized image height: 704\n",
      "Processed 167.png:\n",
      "Resized image width: 1280\n",
      "Resized image height: 704\n",
      "Processed 99.png:\n",
      "Resized image width: 1280\n",
      "Resized image height: 704\n",
      "Processed 8.png:\n",
      "Resized image width: 1280\n",
      "Resized image height: 704\n",
      "Processed 72.png:\n",
      "Resized image width: 1280\n",
      "Resized image height: 704\n",
      "Processed 198.png:\n",
      "Resized image width: 1280\n",
      "Resized image height: 704\n",
      "Processed 66.png:\n",
      "Resized image width: 1280\n",
      "Resized image height: 704\n",
      "Processed 205.png:\n",
      "Resized image width: 1280\n",
      "Resized image height: 704\n",
      "Processed 211.png:\n",
      "Resized image width: 1280\n",
      "Resized image height: 704\n",
      "Processed 239.png:\n",
      "Resized image width: 1280\n",
      "Resized image height: 704\n",
      "Processed 238.png:\n",
      "Resized image width: 1280\n",
      "Resized image height: 704\n",
      "Processed 210.png:\n",
      "Resized image width: 1280\n",
      "Resized image height: 704\n",
      "Processed 204.png:\n",
      "Resized image width: 1280\n",
      "Resized image height: 704\n",
      "Processed 199.png:\n",
      "Resized image width: 1280\n",
      "Resized image height: 704\n",
      "Processed 67.png:\n",
      "Resized image width: 1280\n",
      "Resized image height: 704\n",
      "Processed 73.png:\n",
      "Resized image width: 1280\n",
      "Resized image height: 704\n",
      "Processed 9.png:\n",
      "Resized image width: 1280\n",
      "Resized image height: 704\n",
      "Processed 166.png:\n",
      "Resized image width: 1280\n",
      "Resized image height: 704\n",
      "Processed 98.png:\n",
      "Resized image width: 1280\n",
      "Resized image height: 704\n",
      "Processed 172.png:\n",
      "Resized image width: 1280\n",
      "Resized image height: 704\n",
      "Processed 129.png:\n",
      "Resized image width: 1280\n",
      "Resized image height: 704\n",
      "Processed 115.png:\n",
      "Resized image width: 1280\n",
      "Resized image height: 704\n",
      "Processed 101.png:\n",
      "Resized image width: 1280\n",
      "Resized image height: 704\n",
      "Processed 14.png:\n",
      "Resized image width: 1280\n",
      "Resized image height: 704\n",
      "Processed 28.png:\n",
      "Resized image width: 1280\n",
      "Resized image height: 704\n",
      "Processed 29.png:\n",
      "Resized image width: 1280\n",
      "Resized image height: 704\n",
      "Processed 15.png:\n",
      "Resized image width: 1280\n",
      "Resized image height: 704\n",
      "Processed 100.png:\n",
      "Resized image width: 1280\n",
      "Resized image height: 704\n",
      "Processed 114.png:\n",
      "Resized image width: 1280\n",
      "Resized image height: 704\n",
      "Processed 128.png:\n",
      "Resized image width: 1280\n",
      "Resized image height: 704\n",
      "Processed 102.png:\n",
      "Resized image width: 1280\n",
      "Resized image height: 704\n",
      "Processed 116.png:\n",
      "Resized image width: 1280\n",
      "Resized image height: 704\n",
      "Processed 17.png:\n",
      "Resized image width: 1280\n",
      "Resized image height: 704\n",
      "Processed 16.png:\n",
      "Resized image width: 1280\n",
      "Resized image height: 704\n",
      "Processed 117.png:\n",
      "Resized image width: 1280\n",
      "Resized image height: 704\n",
      "Processed 103.png:\n",
      "Resized image width: 1280\n",
      "Resized image height: 704\n",
      "Processed 107.png:\n",
      "Resized image width: 1280\n",
      "Resized image height: 704\n",
      "Processed 113.png:\n",
      "Resized image width: 1280\n",
      "Resized image height: 704\n",
      "Processed 12.png:\n",
      "Resized image width: 1280\n",
      "Resized image height: 704\n",
      "Processed 13.png:\n",
      "Resized image width: 1280\n",
      "Resized image height: 704\n",
      "Processed 112.png:\n",
      "Resized image width: 1280\n",
      "Resized image height: 704\n",
      "Processed 106.png:\n",
      "Resized image width: 1280\n",
      "Resized image height: 704\n",
      "Processed 110.png:\n",
      "Resized image width: 1280\n",
      "Resized image height: 704\n",
      "Processed 104.png:\n",
      "Resized image width: 1280\n",
      "Resized image height: 704\n",
      "Processed 138.png:\n",
      "Resized image width: 1280\n",
      "Resized image height: 704\n",
      "Processed 39.png:\n",
      "Resized image width: 1280\n",
      "Resized image height: 704\n",
      "Processed 11.png:\n",
      "Resized image width: 1280\n",
      "Resized image height: 704\n",
      "Processed 10.png:\n",
      "Resized image width: 1280\n",
      "Resized image height: 704\n",
      "Processed 38.png:\n",
      "Resized image width: 1280\n",
      "Resized image height: 704\n",
      "Processed 139.png:\n",
      "Resized image width: 1280\n",
      "Resized image height: 704\n",
      "Processed 105.png:\n",
      "Resized image width: 1280\n",
      "Resized image height: 704\n",
      "Processed 111.png:\n",
      "Resized image width: 1280\n",
      "Resized image height: 704\n",
      "Processed 108.png:\n",
      "Resized image width: 1280\n",
      "Resized image height: 704\n",
      "Processed 134.png:\n",
      "Resized image width: 1280\n",
      "Resized image height: 704\n",
      "Processed 120.png:\n",
      "Resized image width: 1280\n",
      "Resized image height: 704\n",
      "Processed 35.png:\n",
      "Resized image width: 1280\n",
      "Resized image height: 704\n",
      "Processed 21.png:\n",
      "Resized image width: 1280\n",
      "Resized image height: 704\n",
      "Processed 20.png:\n",
      "Resized image width: 1280\n",
      "Resized image height: 704\n",
      "Processed 34.png:\n",
      "Resized image width: 1280\n",
      "Resized image height: 704\n",
      "Processed 121.png:\n",
      "Resized image width: 1280\n",
      "Resized image height: 704\n",
      "Processed 135.png:\n",
      "Resized image width: 1280\n",
      "Resized image height: 704\n",
      "Processed 109.png:\n",
      "Resized image width: 1280\n",
      "Resized image height: 704\n",
      "Processed 123.png:\n",
      "Resized image width: 1280\n",
      "Resized image height: 704\n",
      "Processed 137.png:\n",
      "Resized image width: 1280\n",
      "Resized image height: 704\n",
      "Processed 22.png:\n",
      "Resized image width: 1280\n",
      "Resized image height: 704\n",
      "Processed 36.png:\n",
      "Resized image width: 1280\n",
      "Resized image height: 704\n",
      "Processed 240.png:\n",
      "Resized image width: 1280\n",
      "Resized image height: 704\n",
      "Processed 37.png:\n",
      "Resized image width: 1280\n",
      "Resized image height: 704\n",
      "Processed 23.png:\n",
      "Resized image width: 1280\n",
      "Resized image height: 704\n",
      "Processed 136.png:\n",
      "Resized image width: 1280\n",
      "Resized image height: 704\n",
      "Processed 122.png:\n",
      "Resized image width: 1280\n",
      "Resized image height: 704\n",
      "Processed 126.png:\n",
      "Resized image width: 1280\n",
      "Resized image height: 704\n",
      "Processed 132.png:\n",
      "Resized image width: 1280\n",
      "Resized image height: 704\n",
      "Processed 27.png:\n",
      "Resized image width: 1280\n",
      "Resized image height: 704\n",
      "Processed 33.png:\n",
      "Resized image width: 1280\n",
      "Resized image height: 704\n",
      "Processed 32.png:\n",
      "Resized image width: 1280\n",
      "Resized image height: 704\n",
      "Processed 26.png:\n",
      "Resized image width: 1280\n",
      "Resized image height: 704\n",
      "Processed 133.png:\n",
      "Resized image width: 1280\n",
      "Resized image height: 704\n",
      "Processed 127.png:\n",
      "Resized image width: 1280\n",
      "Resized image height: 704\n",
      "Processed 131.png:\n",
      "Resized image width: 1280\n",
      "Resized image height: 704\n",
      "Processed 125.png:\n",
      "Resized image width: 1280\n",
      "Resized image height: 704\n",
      "Processed 119.png:\n",
      "Resized image width: 1280\n",
      "Resized image height: 704\n",
      "Processed 18.png:\n",
      "Resized image width: 1280\n",
      "Resized image height: 704\n",
      "Processed 30.png:\n",
      "Resized image width: 1280\n",
      "Resized image height: 704\n",
      "Processed 24.png:\n",
      "Resized image width: 1280\n",
      "Resized image height: 704\n",
      "Processed 25.png:\n",
      "Resized image width: 1280\n",
      "Resized image height: 704\n",
      "Processed 31.png:\n",
      "Resized image width: 1280\n",
      "Resized image height: 704\n",
      "Processed 19.png:\n",
      "Resized image width: 1280\n",
      "Resized image height: 704\n",
      "Processed 118.png:\n",
      "Resized image width: 1280\n",
      "Resized image height: 704\n",
      "Processed 124.png:\n",
      "Resized image width: 1280\n",
      "Resized image height: 704\n",
      "Processed 130.png:\n",
      "Resized image width: 1280\n",
      "Resized image height: 704\n",
      "Processed 95.png:\n",
      "Resized image width: 1280\n",
      "Resized image height: 704\n",
      "Processed 81.png:\n",
      "Resized image width: 1280\n",
      "Resized image height: 704\n",
      "Processed 157.png:\n",
      "Resized image width: 1280\n",
      "Resized image height: 704\n",
      "Processed 143.png:\n",
      "Resized image width: 1280\n",
      "Resized image height: 704\n",
      "Processed 4.png:\n",
      "Resized image width: 1280\n",
      "Resized image height: 704\n",
      "Processed 56.png:\n",
      "Resized image width: 1280\n",
      "Resized image height: 704\n",
      "Processed 42.png:\n",
      "Resized image width: 1280\n",
      "Resized image height: 704\n",
      "Processed 194.png:\n",
      "Resized image width: 1280\n",
      "Resized image height: 704\n",
      "Processed 180.png:\n",
      "Resized image width: 1280\n",
      "Resized image height: 704\n",
      "Processed 209.png:\n",
      "Resized image width: 1280\n",
      "Resized image height: 704\n",
      "Processed 221.png:\n",
      "Resized image width: 1280\n",
      "Resized image height: 704\n",
      "Processed 235.png:\n",
      "Resized image width: 1280\n",
      "Resized image height: 704\n",
      "Processed 234.png:\n",
      "Resized image width: 1280\n",
      "Resized image height: 704\n",
      "Processed 220.png:\n",
      "Resized image width: 1280\n",
      "Resized image height: 704\n",
      "Processed 208.png:\n",
      "Resized image width: 1280\n",
      "Resized image height: 704\n",
      "Processed 181.png:\n",
      "Resized image width: 1280\n",
      "Resized image height: 704\n",
      "Processed 195.png:\n",
      "Resized image width: 1280\n",
      "Resized image height: 704\n",
      "Processed 43.png:\n",
      "Resized image width: 1280\n",
      "Resized image height: 704\n",
      "Processed 5.png:\n",
      "Resized image width: 1280\n",
      "Resized image height: 704\n",
      "Processed 57.png:\n",
      "Resized image width: 1280\n",
      "Resized image height: 704\n",
      "Processed 142.png:\n",
      "Resized image width: 1280\n",
      "Resized image height: 704\n",
      "Processed 156.png:\n",
      "Resized image width: 1280\n",
      "Resized image height: 704\n",
      "Processed 80.png:\n",
      "Resized image width: 1280\n",
      "Resized image height: 704\n",
      "Processed 94.png:\n",
      "Resized image width: 1280\n",
      "Resized image height: 704\n",
      "Processed 82.png:\n",
      "Resized image width: 1280\n",
      "Resized image height: 704\n",
      "Processed 96.png:\n",
      "Resized image width: 1280\n",
      "Resized image height: 704\n",
      "Processed 168.png:\n",
      "Resized image width: 1280\n",
      "Resized image height: 704\n",
      "Processed 140.png:\n",
      "Resized image width: 1280\n",
      "Resized image height: 704\n",
      "Processed 154.png:\n",
      "Resized image width: 1280\n",
      "Resized image height: 704\n",
      "Processed 41.png:\n",
      "Resized image width: 1280\n",
      "Resized image height: 704\n",
      "Processed 55.png:\n",
      "Resized image width: 1280\n",
      "Resized image height: 704\n",
      "Processed 7.png:\n",
      "Resized image width: 1280\n",
      "Resized image height: 704\n",
      "Processed 183.png:\n",
      "Resized image width: 1280\n",
      "Resized image height: 704\n",
      "Processed 69.png:\n",
      "Resized image width: 1280\n",
      "Resized image height: 704\n",
      "Processed 197.png:\n",
      "Resized image width: 1280\n",
      "Resized image height: 704\n",
      "Processed 236.png:\n",
      "Resized image width: 1280\n",
      "Resized image height: 704\n",
      "Processed 222.png:\n",
      "Resized image width: 1280\n",
      "Resized image height: 704\n",
      "Processed 223.png:\n",
      "Resized image width: 1280\n",
      "Resized image height: 704\n",
      "Processed 237.png:\n",
      "Resized image width: 1280\n",
      "Resized image height: 704\n",
      "Processed 68.png:\n",
      "Resized image width: 1280\n",
      "Resized image height: 704\n",
      "Processed 196.png:\n",
      "Resized image width: 1280\n",
      "Resized image height: 704\n",
      "Processed 182.png:\n",
      "Resized image width: 1280\n",
      "Resized image height: 704\n",
      "Processed 54.png:\n",
      "Resized image width: 1280\n",
      "Resized image height: 704\n",
      "Processed 6.png:\n",
      "Resized image width: 1280\n",
      "Resized image height: 704\n",
      "Processed 40.png:\n",
      "Resized image width: 1280\n",
      "Resized image height: 704\n",
      "Processed 155.png:\n",
      "Resized image width: 1280\n",
      "Resized image height: 704\n",
      "Processed 141.png:\n",
      "Resized image width: 1280\n",
      "Resized image height: 704\n",
      "Processed 97.png:\n",
      "Resized image width: 1280\n",
      "Resized image height: 704\n",
      "Processed 169.png:\n",
      "Resized image width: 1280\n",
      "Resized image height: 704\n",
      "Processed 83.png:\n",
      "Resized image width: 1280\n",
      "Resized image height: 704\n",
      "Processed 145.png:\n",
      "Resized image width: 1280\n",
      "Resized image height: 704\n",
      "Processed 151.png:\n",
      "Resized image width: 1280\n",
      "Resized image height: 704\n",
      "Processed 87.png:\n",
      "Resized image width: 1280\n",
      "Resized image height: 704\n",
      "Processed 179.png:\n",
      "Resized image width: 1280\n",
      "Resized image height: 704\n",
      "Processed 93.png:\n",
      "Resized image width: 1280\n",
      "Resized image height: 704\n",
      "Processed 78.png:\n",
      "Resized image width: 1280\n",
      "Resized image height: 704\n",
      "Processed 186.png:\n",
      "Resized image width: 1280\n",
      "Resized image height: 704\n",
      "Processed 192.png:\n",
      "Resized image width: 1280\n",
      "Resized image height: 704\n",
      "Processed 44.png:\n",
      "Resized image width: 1280\n",
      "Resized image height: 704\n",
      "Processed 2.png:\n",
      "Resized image width: 1280\n",
      "Resized image height: 704\n",
      "Processed 50.png:\n",
      "Resized image width: 1280\n",
      "Resized image height: 704\n",
      "Processed 233.png:\n",
      "Resized image width: 1280\n",
      "Resized image height: 704\n",
      "Processed 227.png:\n",
      "Resized image width: 1280\n",
      "Resized image height: 704\n",
      "Processed 226.png:\n",
      "Resized image width: 1280\n",
      "Resized image height: 704\n",
      "Processed 232.png:\n",
      "Resized image width: 1280\n",
      "Resized image height: 704\n",
      "Processed 3.png:\n",
      "Resized image width: 1280\n",
      "Resized image height: 704\n",
      "Processed 51.png:\n",
      "Resized image width: 1280\n",
      "Resized image height: 704\n",
      "Processed 45.png:\n",
      "Resized image width: 1280\n",
      "Resized image height: 704\n",
      "Processed 193.png:\n",
      "Resized image width: 1280\n",
      "Resized image height: 704\n",
      "Processed 79.png:\n",
      "Resized image width: 1280\n",
      "Resized image height: 704\n",
      "Processed 187.png:\n",
      "Resized image width: 1280\n",
      "Resized image height: 704\n",
      "Processed 92.png:\n",
      "Resized image width: 1280\n",
      "Resized image height: 704\n",
      "Processed 86.png:\n",
      "Resized image width: 1280\n",
      "Resized image height: 704\n",
      "Processed 178.png:\n",
      "Resized image width: 1280\n",
      "Resized image height: 704\n",
      "Processed 150.png:\n",
      "Resized image width: 1280\n",
      "Resized image height: 704\n",
      "Processed 144.png:\n",
      "Resized image width: 1280\n",
      "Resized image height: 704\n",
      "Processed 152.png:\n",
      "Resized image width: 1280\n",
      "Resized image height: 704\n",
      "Processed 146.png:\n",
      "Resized image width: 1280\n",
      "Resized image height: 704\n",
      "Processed 90.png:\n",
      "Resized image width: 1280\n",
      "Resized image height: 704\n",
      "Processed 84.png:\n",
      "Resized image width: 1280\n",
      "Resized image height: 704\n",
      "Processed 191.png:\n",
      "Resized image width: 1280\n",
      "Resized image height: 704\n",
      "Processed 185.png:\n",
      "Resized image width: 1280\n",
      "Resized image height: 704\n",
      "Processed 53.png:\n",
      "Resized image width: 1280\n",
      "Resized image height: 704\n",
      "Processed 1.png:\n",
      "Resized image width: 1280\n",
      "Resized image height: 704\n",
      "Processed 47.png:\n",
      "Resized image width: 1280\n",
      "Resized image height: 704\n",
      "Processed 224.png:\n",
      "Resized image width: 1280\n",
      "Resized image height: 704\n",
      "Processed 230.png:\n",
      "Resized image width: 1280\n",
      "Resized image height: 704\n",
      "Processed 218.png:\n",
      "Resized image width: 1280\n",
      "Resized image height: 704\n",
      "Processed 219.png:\n",
      "Resized image width: 1280\n",
      "Resized image height: 704\n",
      "Processed 231.png:\n",
      "Resized image width: 1280\n",
      "Resized image height: 704\n",
      "Processed 225.png:\n",
      "Resized image width: 1280\n",
      "Resized image height: 704\n",
      "Processed 46.png:\n",
      "Resized image width: 1280\n",
      "Resized image height: 704\n",
      "Processed 52.png:\n",
      "Resized image width: 1280\n",
      "Resized image height: 704\n",
      "Processed 184.png:\n",
      "Resized image width: 1280\n",
      "Resized image height: 704\n",
      "Processed 190.png:\n",
      "Resized image width: 1280\n",
      "Resized image height: 704\n",
      "Processed 85.png:\n",
      "Resized image width: 1280\n",
      "Resized image height: 704\n",
      "Processed 91.png:\n",
      "Resized image width: 1280\n",
      "Resized image height: 704\n",
      "Processed 147.png:\n",
      "Resized image width: 1280\n",
      "Resized image height: 704\n",
      "Processed 153.png:\n",
      "Resized image width: 1280\n",
      "Resized image height: 704\n",
      "Image resizing complete.\n"
     ]
    }
   ],
   "source": [
    "import os\n",
    "import cv2\n",
    "\n",
    "# Define input and output directories\n",
    "input_dir = \"./output_images\"  # Folder containing the raw output images\n",
    "output_dir = \"./resize_images\"  # Folder to save resized images\n",
    "\n",
    "# Ensure the output directory exists\n",
    "if not os.path.exists(output_dir):\n",
    "    os.makedirs(output_dir)\n",
    "\n",
    "# Define the target width and height (use sample image dimensions or predefined values)\n",
    "sample_image_width = 1280  # Replace with desired width\n",
    "sample_image_height = 704  # Replace with desired height\n",
    "\n",
    "# Loop through all images in the input directory\n",
    "for filename in os.listdir(input_dir):\n",
    "    if filename.endswith(\".png\") or filename.endswith(\".jpg\"):  # Modify based on image format\n",
    "        # Construct the full path for each input image\n",
    "        input_image_path = os.path.join(input_dir, filename)\n",
    "        \n",
    "        # Load the input image\n",
    "        input_image = cv2.imread(input_image_path)\n",
    "\n",
    "        # Check if image is successfully loaded\n",
    "        if input_image is None:\n",
    "            print(f\"Error loading image: {input_image_path}\")\n",
    "            continue\n",
    "\n",
    "        # Resize the input image to the specified width and height\n",
    "        input_image_resized = cv2.resize(input_image, (sample_image_width, sample_image_height))\n",
    "\n",
    "        # Save the resized image to the output directory\n",
    "        output_image_path = os.path.join(output_dir, filename)\n",
    "        cv2.imwrite(output_image_path, input_image_resized)\n",
    "\n",
    "        # Print the dimensions of the resized image\n",
    "        print(f\"Processed {filename}:\")\n",
    "        print(f\"Resized image width: {input_image_resized.shape[1]}\")\n",
    "        print(f\"Resized image height: {input_image_resized.shape[0]}\")\n",
    "\n",
    "print(\"Image resizing complete.\")"
   ]
  },
  {
   "cell_type": "markdown",
   "metadata": {},
   "source": [
    "# for input, 5 images at least."
   ]
  }
 ],
 "metadata": {
  "kernelspec": {
   "display_name": "imu_env",
   "language": "python",
   "name": "python3"
  },
  "language_info": {
   "codemirror_mode": {
    "name": "ipython",
    "version": 3
   },
   "file_extension": ".py",
   "mimetype": "text/x-python",
   "name": "python",
   "nbconvert_exporter": "python",
   "pygments_lexer": "ipython3",
   "version": "3.11.10"
  }
 },
 "nbformat": 4,
 "nbformat_minor": 2
}
